:version 1.10
:name ASF
:units
  mass 1
  length 1
  angle deg
:documentation
  ASF file generated by Kaydara
:root
  axis xyz
  order  tx ty tz rx ry rz
  position 0 0 0
  orientation 0 0 0
:bonedata
  begin
    id 1
    name RightUpLegDummy
    direction -0.718183 -0.695806 0.00816078
    length 4.904
    axis 0 0 0 xyz
  end
  begin
    id 2
    name RightUpLeg
    direction 3.53373e-006 -0.995788 0.0916898
    length 17.4976
    axis -3.49089 -0.000906625 0.000286804 xyz
    dof rx ry rz
  end
  begin
    id 3
    name RightLeg
    direction 0.00371092 -0.995096 -0.0988419
    length 16.5821
    axis 3.68512 0.0193738 -0.131023 xyz
    dof rx ry rz
  end
  begin
    id 4
    name RightFoot
    direction 0.00079151 -0.46099 0.887405
    length 3.77069
    axis 4.81691e-005 -0.120479 -0.188788 xyz
    dof rx ry rz
  end
  begin
    id 5
    name RightToes
    direction 0.00124746 -0.014064 0.9999
    length 3.85082
    axis 0.000481921 0.542163 -0.142578 xyz
    dof rx ry rz
  end
  begin
    id 6
    name SpineDummy
    direction 8.3039e-015 1 4.57515e-016
    length 4.6813
    axis 0 0 0 xyz
  end
  begin
    id 7
    name Spine
    direction -3.15643e-008 0.999988 0.00495137
    length 10.1015
    axis -0.001389 0.000121418 2.40972e-006 xyz
    dof rx ry rz
  end
  begin
    id 8
    name Spine1
    direction 0 0 0
    length 0
    axis -0.001389 0.000121451 1.30017e-006 xyz
    dof rx ry rz
  end
  begin
    id 9
    name HEadDummy
    direction -1.99912e-008 0.999999 0.00127422
    length 3.43865
    axis -0.001389 0.000121451 1.30017e-006 xyz
  end
  begin
    id 10
    name HEad
    direction -0.0222688 0.980941 0.193023
    length 5.12695
    axis -0.001389 0.000121451 1.30017e-006 xyz
    dof rx ry rz
  end
  begin
    id 11
    name LeftShoulder1Dummy
    direction 0.998891 -0.0402509 -0.0244456
    length 3.5433
    axis -0.001389 0.000121451 1.30017e-006 xyz
  end
  begin
    id 12
    name LeftShoulder1
    direction 0.99951 -0.000327763 0.0313091
    length 4.05031
    axis -0.001389 0.000121451 1.30017e-006 xyz
    dof rx ry rz
  end
  begin
    id 13
    name LeftArm
    direction 0.998561 -0.00100056 -0.0536182
    length 10.3537
    axis -23.1894 0.134784 0.967509 xyz
    dof rx ry rz
  end
  begin
    id 14
    name LeftForeArm
    direction 0.998903 0.00866432 0.046012
    length 8.70632
    axis -9.91835 -0.06569 -0.177794 xyz
    dof rx ry rz
  end
  begin
    id 15
    name LeftHand
    direction 0.992938 -0.0411637 0.11126
    length 5.32135
    axis -0.00960232 -0.00340091 0.185173 xyz
    dof rx ry rz
  end
  begin
    id 16
    name RightShoulderDummy
    direction -0.998891 -0.0402509 -0.0244414
    length 3.5433
    axis -0.001389 0.000121451 1.30017e-006 xyz
  end
  begin
    id 17
    name RightShoulder
    direction -0.99951 -0.000327807 0.0313133
    length 4.05031
    axis 0.215806 0.000203643 -0.0068026 xyz
    dof rx ry rz
  end
  begin
    id 18
    name RightArm
    direction -0.998573 -0.000999564 -0.053403
    length 10.3947
    axis -23.2009 -0.134239 -0.964101 xyz
    dof rx ry rz
  end
  begin
    id 19
    name RightForeArm
    direction -0.998898 0.00868028 0.0461306
    length 8.68355
    axis -9.92322 0.0658061 0.178868 xyz
    dof rx ry rz
  end
  begin
    id 20
    name RightHand
    direction -0.992843 -0.0414603 0.112003
    length 5.28593
    axis -0.00960638 0.00330671 -0.185228 xyz
    dof rx ry rz
  end
  begin
    id 21
    name LeftUpLegDummy
    direction 0.718183 -0.695806 0.00816078
    length 4.904
    axis 0 0 0 xyz
  end
  begin
    id 22
    name LeftUpLeg
    direction -6.81752e-006 -0.995793 0.0916337
    length 17.4976
    axis -3.48766 0.00143442 -0.000524262 xyz
    dof rx ry rz
  end
  begin
    id 23
    name LeftLeg
    direction -0.00601358 -0.995091 -0.0987824
    length 16.5821
    axis 3.68178 -0.00654042 -0.000285133 xyz
    dof rx ry rz
  end
  begin
    id 24
    name LeftFoot
    direction -0.00417578 -0.460984 0.887399
    length 3.77069
    axis 1.87233e-006 4.66016e-005 -8.6538e-006 xyz
    dof rx ry rz
  end
  begin
    id 25
    name LeftToes
    direction 0.00818058 -0.00485161 0.999955
    length 3.85048
    axis 1.06247e-005 4.65869e-005 -8.65513e-006 xyz
    dof rx ry rz
  end
:hierarchy
  begin
    root RightUpLegDummy SpineDummy LeftUpLegDummy
    RightUpLegDummy RightUpLeg
    RightUpLeg RightLeg
    RightLeg RightFoot
    RightFoot RightToes
    SpineDummy Spine
    Spine Spine1
    Spine1 HEadDummy LeftShoulder1Dummy RightShoulderDummy
    HEadDummy HEad
    LeftShoulder1Dummy LeftShoulder1
    LeftShoulder1 LeftArm
    LeftArm LeftForeArm
    LeftForeArm LeftHand
    RightShoulderDummy RightShoulder
    RightShoulder RightArm
    RightArm RightForeArm
    RightForeArm RightHand
    LeftUpLegDummy LeftUpLeg
    LeftUpLeg LeftLeg
    LeftLeg LeftFoot
    LeftFoot LeftToes
  end

:SAMPLES-PER-SECOND 30
:FRAME-RANGE 1-1086
:FULLY-SPECIFIED
:DEGREES
1
root  -61.5004 40.2607 -35.1578 179.782 28.3448 -179.583
RightUpLeg  0.549513 -3.55225 -0.845187
RightLeg  -0.583944 -8.86729 0.580012
RightFoot  -0.6719 -0.345421 3.75272
RightToes  -5.8209e-011 0 -3.6325e-017
Spine  3.18715 -0.095249 0.230084
Spine1  -1.99525 0.0587659 -0.822387
HEad  7.03313 -8.39543 -3.64288
LeftShoulder1  1.59843 -0.487512 -33.9883
LeftArm  34.183 0.466031 -37.8701
LeftForeArm  -3.99094 -9.34917 -17.1052
LeftHand  0.216719 -1.60261 -3.46812
RightShoulder  9.17216 11.6521 52.9387
RightArm  26.7427 1.70282 17.3707
RightForeArm  16.0444 3.70832 17.5279
RightHand  0.379577 4.16654 4.46385
LeftUpLeg  0.185996 8.21962 4.90998
LeftLeg  1.64673 2.71353 -2.09293
LeftFoot  -1.46864 0.446208 -5.15277
LeftToes  5.72949e-011 5.22586e-011 2.45399e-011
2
root  -61.4902 40.2607 -35.1537 179.904 28.2335 -179.548
RightUpLeg  0.467509 -3.48438 -0.785108
RightLeg  -0.626821 -9.04841 0.584012
RightFoot  -0.662062 -0.34662 3.77133
RightToes  -5.8209e-011 0 -3.6325e-017
Spine  3.19396 -0.134018 0.170443
Spine1  -2.011 0.00546044 -0.760008
HEad  6.65441 -10.0713 -3.7275
LeftShoulder1  1.58876 -0.463325 -33.9884
LeftArm  34.3622 0.464824 -37.9019
LeftForeArm  -4.16946 -9.43811 -17.0703
LeftHand  0.211703 -1.57833 -3.39873
RightShoulder  9.20188 11.6982 52.9483
RightArm  27.6453 1.65194 17.4332
RightForeArm  15.1026 4.057 17.5147
RightHand  0.381809 3.99453 4.49986
LeftUpLeg  0.0467366 8.22938 4.94438
LeftLeg  1.67991 2.55463 -2.10097
LeftFoot  -1.44714 0.443015 -5.10297
LeftToes  5.72949e-011 5.22586e-011 2.45399e-011
3
root  -61.4785 40.2607 -35.1597 179.949 28.1817 -179.549
RightUpLeg  0.438381 -3.52021 -0.796997
RightLeg  -0.619611 -9.06523 0.629179
RightFoot  -0.685076 -0.345167 3.74878
RightToes  -5.8209e-011 0 -3.6325e-017
Spine  3.16524 -0.128612 0.110623
Spine1  -1.95269 0.00148425 -0.710037
HEad  6.32128 -11.6413 -3.74531
LeftShoulder1  1.59557 -0.476512 -34.0265
LeftArm  34.7747 0.376538 -37.8831
LeftForeArm  -4.87592 -9.53034 -17.0715
LeftHand  0.290368 -1.54502 -4.73933
RightShoulder  9.09083 11.5831 52.7174
RightArm  27.6999 1.73438 17.808
RightForeArm  15.202 3.91184 17.5587
RightHand  0.380721 4.00087 4.43255
LeftUpLeg  0.0218335 8.23934 4.96055
LeftLeg  1.65872 2.45491 -2.1204
LeftFoot  -1.42654 0.442204 -5.09032
LeftToes  5.72949e-011 5.22586e-011 2.45399e-011
4
root  -61.4721 40.2607 -35.1766 179.909 28.1889 -179.591
RightUpLeg  0.472877 -3.59569 -0.864201
RightLeg  -0.570488 -8.96628 0.649547
RightFoot  -0.738732 -0.34545 3.75317
RightToes  -5.8209e-011 0 -3.6325e-017
Spine  3.14827 -0.115075 0.0703437
Spine1  -1.85453 0.0111489 -0.679061
HEad  6.14813 -12.9241 -3.75429
LeftShoulder1  1.60567 -0.494805 -34.0951
LeftArm  35.3158 0.34093 -37.8386
LeftForeArm  -5.20957 -9.68937 -17.0185
LeftHand  0.29072 -1.53824 -4.75057
RightShoulder  8.93169 11.4221 52.3653
RightArm  27.3683 1.88801 18.3107
RightForeArm  15.6977 3.55532 17.6259
RightHand  0.374872 3.9938 4.36418
LeftUpLeg  0.163107 8.16245 4.89316
LeftLeg  1.46206 2.56492 -2.07086
LeftFoot  -1.35857 0.442648 -5.09724
LeftToes  5.72949e-011 5.22586e-011 2.45399e-011
5
root  -61.455 40.2607 -35.1721 179.999 28.1648 -179.547
RightUpLeg  0.407531 -3.47619 -0.75231
RightLeg  -0.577205 -9.13149 0.597257
RightFoot  -0.743983 -0.34507 3.74727
RightToes  -5.8209e-011 0 -3.6325e-017
Spine  3.25529 -0.110308 -0.0445354
Spine1  -2.02849 -0.0134562 -0.528282
HEad  6.14423 -14.0347 -3.77439
LeftShoulder1  1.61303 -0.517939 -34.0481
LeftArm  35.0461 0.393164 -37.8813
LeftForeArm  -4.97028 -9.5952 -17.0518
LeftHand  0.289483 -1.53266 -4.68673
RightShoulder  9.28418 11.8778 52.8024
RightArm  26.8403 1.44624 17.6056
RightForeArm  16.1131 3.69245 17.518
RightHand  0.387944 4.02884 4.50623
LeftUpLeg  0.0595972 8.20613 4.96171
LeftLeg  1.53076 2.50619 -2.08377
LeftFoot  -1.38456 0.442814 -5.09982
LeftToes  5.72949e-011 5.22586e-011 2.45399e-011
6
root  -61.4392 40.2607 -35.1753 -179.954 28.2153 -179.522
RightUpLeg  0.401331 -3.47315 -0.722992
RightLeg  -0.618602 -9.08297 0.632426
RightFoot  -0.743282 -0.344212 3.73396
RightToes  -5.8209e-011 0 -3.6325e-017
Spine  3.17679 -0.115794 -0.0236097
Spine1  -1.93072 -0.0142898 -0.552361
HEad  6.02081 -14.8898 -3.70783
LeftShoulder1  1.61392 -0.518516 -34.0238
LeftArm  35.1048 0.349908 -37.8693
LeftForeArm  -5.08021 -9.60728 -17.0531
LeftHand  0.288571 -1.48224 -4.64858
RightShoulder  9.28345 11.8459 52.9048
RightArm  27.6857 1.58801 17.4442
RightForeArm  15.1351 4.03763 17.5195
RightHand  0.38876 3.96009 4.55434
LeftUpLeg  0.02911 8.24404 5.01481
LeftLeg  1.57073 2.49959 -2.09437
LeftFoot  -1.42753 0.444166 -5.12092
LeftToes  5.72949e-011 5.22586e-011 2.45399e-011
7
root  -61.4266 40.2607 -35.181 -179.949 28.2704 -179.516
RightUpLeg  0.40209 -3.46698 -0.703243
RightLeg  -0.597626 -9.03379 0.630054
RightFoot  -0.766006 -0.342812 3.71223
RightToes  -5.8209e-011 0 -3.6325e-017
Spine  3.23102 -0.131961 0.00819418
Spine1  -1.97197 -0.0251912 -0.580534
HEad  5.94364 -15.6456 -3.65597
LeftShoulder1  1.61389 -0.520643 -34.0426
LeftArm  35.0887 0.329275 -37.7953
LeftForeArm  -5.0536 -9.58321 -17.0648
LeftHand  0.288373 -1.48789 -4.67601
RightShoulder  9.26647 11.8414 52.8261
RightArm  27.0691 1.6854 17.5202
RightForeArm  15.8368 3.68121 17.5672
RightHand  0.390283 4.06191 4.51681
LeftUpLeg  0.0250767 8.24807 5.03308
LeftLeg  1.63144 2.54238 -2.07876
LeftFoot  -1.47603 0.445423 -5.14052
LeftToes  5.72949e-011 5.22586e-011 2.45399e-011
8
root  -61.4189 40.2607 -35.1985 179.972 28.4246 -179.58
RightUpLeg  0.444587 -3.56847 -0.794234
RightLeg  -0.535887 -8.77151 0.656842
RightFoot  -0.826643 -0.341709 3.69511
RightToes  -5.8209e-011 0 -3.6325e-017
Spine  3.27475 -0.117862 0.0725062
Spine1  -1.94966 0.0133433 -0.704407
HEad  6.00534 -16.2425 -3.68423
LeftShoulder1  1.61758 -0.530467 -34.0366
LeftArm  35.2366 0.325245 -37.7451
LeftForeArm  -5.17348 -9.61812 -17.0568
LeftHand  0.287767 -1.50821 -4.6843
RightShoulder  9.22181 11.8146 52.669
RightArm  27.5643 1.62719 17.677
RightForeArm  15.1454 4.0276 17.508
RightHand  0.375947 3.87882 4.43997
LeftUpLeg  0.190512 8.19764 4.96052
LeftLeg  1.50804 2.76871 -2.04441
LeftFoot  -1.46857 0.444891 -5.13224
LeftToes  5.72949e-011 5.22586e-011 2.45399e-011
